# xmcd
#
# Track frame offsets: 
#        150
#        13133
#        31248
#        48695
#        67485
#        82348
#        101073
#        120748
#        132533
#        150648
#        163555
#        182680
#        201910
#
# Disc length: 2936 seconds
#
# Revision: 1
# Processed by: cddbd v1.5.2PL0 Copyright (c) Steve Scherf et al.
# Submitted via: ExactAudioCopy v0.95b4
#
DISCID=c20b760d
DTITLE=Black Cat Bone - Blue Shadows
DYEAR=1994
DGENRE=Blues
TTITLE0=born under a bad sign
TTITLE1=meet me in st. louis
TTITLE2=the last time
TTITLE3=nadine
TTITLE4=i don't want to sing the blues no more
TTITLE5=it ain't no way
TTITLE6=voodoo
TTITLE7=guitar talk
TTITLE8=love and peace
TTITLE9=i did
TTITLE10=i've had lovers before
TTITLE11=i once  loved you, baby
TTITLE12=next time you see me
EXTD=
EXTT0=
EXTT1=
EXTT2=
EXTT3=
EXTT4=
EXTT5=
EXTT6=
EXTT7=
EXTT8=
EXTT9=
EXTT10=
EXTT11=
EXTT12=
PLAYORDER=
